<svg width="200" height="200" xmlns="http://www.w3.org/2000/svg" viewBox="0 0 12.8295 11.3811" xmlns:xlink="http://www.w3.org/1999/xlink">
 <defs>
  <style type="text/css">
    .fil0 {fill:#383431}
    .fil1 {fill:#84C225}
  </style>
 </defs>
 <g id="Layer_x0020_1">
  <g id="_125396672">
   <path id="_125397704" class="fil0" d="M2.33127 0c0.41036,0 0.824665,0 1.24297,0 0.343302,0 0.579202,0.263632 0.528759,0.58476 -0.0757846,0.481961 -0.149178,0.9644 -0.224963,1.44636 -0.0504434,0.321128 -0.370914,0.583565 -0.714216,0.583565 -0.41825,0 -0.832554,0 -1.24692,0 -0.343302,0 -0.575317,-0.262437 -0.524814,-0.583565 0.0757846,-0.481961 0.153123,-0.9644 0.228848,-1.44636 0.0505031,-0.321128 0.366969,-0.58476 0.710331,-0.58476z"></path>
   <path id="_125397824" class="fil0" d="M8.13973 0c0.414305,0 0.824665,0 1.24297,0 0.343302,0 0.583924,0.263752 0.536648,0.58476 -0.071063,0.48214 -0.147505,0.963982 -0.220959,1.44636 -0.0488894,0.32077 -0.370974,0.583565 -0.714216,0.583565 -0.418309,0 -0.832614,0 -1.24698,0 -0.343302,0 -0.577708,-0.262198 -0.528759,-0.583565 0.0733939,-0.481722 0.147625,-0.96464 0.221018,-1.44636 0.0489492,-0.321427 0.366969,-0.58476 0.710271,-0.58476z"></path>
   <path id="_125397632" class="fil0" d="M11.0479 0c0.414365,0 0.824725,0 1.23903,0 0.343302,0 0.583983,0.263752 0.536648,0.58476 -0.0710032,0.48214 -0.14356,0.963982 -0.217014,1.44636 -0.0488296,0.32077 -0.370914,0.583565 -0.710271,0.583565 -0.414305,0 -0.82867,0 -1.24297,0 -0.343302,0 -0.583983,-0.262556 -0.536648,-0.583565 0.071063,-0.482081 0.147505,-0.963982 0.220959,-1.44636 0.0488296,-0.32077 0.366969,-0.58476 0.710271,-0.58476z"></path>
   <path id="_125397488" class="fil0" d="M1.86957 2.92255c0.414305,0 0.82861,0 1.24692,0 0.343302,0 0.581473,0.262796 0.532703,0.583565 -0.0735732,0.483515 -0.156829,0.964161 -0.232793,1.4475 -0.0503238,0.319933 -0.363025,0.583565 -0.706327,0.583565 -0.418309,0 -0.836559,0 -1.25092,0 -0.343302,0 -0.584581,-0.263274 -0.532703,-0.583565 0.0782948,-0.482917 0.159279,-0.963982 0.232852,-1.4475 0.0487699,-0.32077 0.366969,-0.583565 0.710271,-0.583565z"></path>
   <path id="_125397416" class="fil0" d="M7.68986 2.92255c0.414305,0 0.82867,0 1.24692,0 0.343302,0 0.587749,0.263154 0.540593,0.583565 -0.0711825,0.483874 -0.15133,0.96452 -0.224903,1.4475 -0.0487699,0.320232 -0.366969,0.583565 -0.710271,0.583565 -0.41825,0 -0.832614,0 -1.24692,0 -0.343302,0 -0.590916,-0.263632 -0.540593,-0.583565 0.0759639,-0.483336 0.157606,-0.963624 0.228848,-1.4475 0.0471562,-0.320411 0.366969,-0.583565 0.706327,-0.583565z"></path>
   <path id="_125397656" class="fil0" d="M10.606 2.92255c0.414305,0 0.82861,0 1.24297,0 0.343302,0 0.586195,0.262915 0.540593,0.583565 -0.0687918,0.483635 -0.147445,0.96452 -0.220959,1.4475 -0.0487699,0.320232 -0.363025,0.583565 -0.710271,0.583565 -0.414365,0 -0.82867,0 -1.24303,0 -0.343302,0 -0.593247,-0.263333 -0.544537,-0.583565 0.0735732,-0.482977 0.153721,-0.963624 0.224963,-1.4475 0.0471562,-0.320411 0.366969,-0.583565 0.710271,-0.583565z"></path>
   <path id="_125397200" class="fil0" d="M1.40787 5.84509c0.41825,0 0.832614,0 1.25086,0 0.343302,0 0.583206,0.262377 0.532703,0.583565 -0.0757248,0.481961 -0.151569,0.963922 -0.224903,1.4463 -0.0489492,0.321965 -0.370914,0.58476 -0.714216,0.58476 -0.41825,0 -0.836559,0 -1.25086,0 -0.347246,0 -0.581653,-0.262796 -0.532703,-0.58476 0.0733341,-0.48238 0.153063,-0.964341 0.228848,-1.4463 0.0505031,-0.321188 0.366969,-0.583565 0.710271,-0.583565z"></path>
   <path id="_125397128" class="fil0" d="M0.954121 8.76639c0.414305,0 0.832554,0 1.25086,0 0.343302,0 0.583087,0.26429 0.532703,0.58476 -0.0759041,0.482678 -0.153004,0.963743 -0.228848,1.44636 -0.0504434,0.32053 -0.370974,0.583565 -0.714276,0.583565 -0.422194,0 -0.836499,0 -1.25481,0 -0.343302,0 -0.584701,-0.262676 -0.532703,-0.583565 0.0781752,-0.48226 0.150732,-0.964102 0.228908,-1.44636 0.0519973,-0.320889 0.370914,-0.58476 0.71816,-0.58476z"></path>
   <path id="_125397056" class="fil0" d="M3.87804 8.76639c0.414365,0 0.832614,0 1.25086,0 0.343302,0 0.583206,0.263632 0.532703,0.58476 -0.0757248,0.481961 -0.145174,0.9644 -0.220959,1.44636 -0.0504434,0.321128 -0.370914,0.583565 -0.714216,0.583565 -0.422194,0 -0.840503,0 -1.25481,0 -0.347246,0 -0.588645,-0.262676 -0.536648,-0.583565 0.0781752,-0.48226 0.146728,-0.964102 0.224903,-1.44636 0.0520571,-0.320889 0.374859,-0.58476 0.71816,-0.58476z"></path>
   <path id="_125396840" class="fil0" d="M6.80202 8.76639c0.414305,0 0.832614,0 1.25086,0 0.343302,0 0.589482,0.263991 0.540593,0.58476 -0.0734537,0.48238 -0.147505,0.963982 -0.220959,1.44636 -0.0488894,0.32077 -0.370914,0.583565 -0.71816,0.583565 -0.418309,0 -0.836559,0 -1.25481,0 -0.343302,0 -0.587032,-0.263035 -0.536648,-0.583565 0.0758443,-0.482619 0.148999,-0.963683 0.224903,-1.44636 0.0503836,-0.320471 0.370914,-0.58476 0.714216,-0.58476z"></path>
   <path id="_125397080" class="fil0" d="M9.72995 8.76639c0.414305,0 0.832614,0 1.24692,0 0.343302,0 0.589422,0.263991 0.540593,0.58476 -0.0734537,0.48238 -0.14356,0.963982 -0.217014,1.44636 -0.0488894,0.32077 -0.366969,0.583565 -0.714216,0.583565 -0.418309,0 -0.832614,0 -1.25092,0 -0.343242,0 -0.591036,-0.262437 -0.540593,-0.583565 0.0757846,-0.481961 0.14362,-0.963982 0.217074,-1.44636 0.0488296,-0.32077 0.374859,-0.58476 0.71816,-0.58476z"></path>
   <path id="_125396984" class="fil1" d="M5.62611 5.53717c-0.0157785,0.10262 -0.0355016,0.2053 -0.0512801,0.30792 0.343302,0 0.588048,0.262556 0.536648,0.583565 -0.00382509,0.023847 -0.00788925,0.0464987 -0.0118339,0.0692102 0.138122,0 0.280188,0 0.422194,0 0.00394462,-0.0227115 0.00806855,-0.0453632 0.0118339,-0.0692102 0.0514594,-0.321009 0.367029,-0.583565 0.710271,-0.583565 0.414365,0 0.832614,0 1.25092,0 0.343302,0 0.588287,0.262616 0.540593,0.583565 -0.00358602,0.0239068 -0.00788925,0.0464987 -0.0118339,0.0692102 0.138122,0 0.280128,0 0.41825,0 0.00394462,-0.0227115 0.00830761,-0.0453034 0.0118339,-0.0692102 0.0477538,-0.320949 0.370914,-0.583565 0.714216,-0.583565 0.414305,0 0.82867,0 1.24297,0 0.343302,0 0.591873,0.262497 0.544537,0.583565 -0.0710032,0.482081 -0.146071,0.964221 -0.217014,1.4463 -0.0473952,0.322204 -0.370914,0.58476 -0.714216,0.58476 -0.41825,0 -0.832614,0 -1.25086,0 -0.343302,0 -0.58482,-0.262676 -0.540593,-0.58476 0.00310788,-0.0227712 0.00788925,-0.0453034 0.0118339,-0.0692102 -0.138122,0 -0.280188,0 -0.41825,0 -0.00394462,0.0239068 -0.00848692,0.046439 -0.0118936,0.0692102 -0.0478734,0.322144 -0.370914,0.58476 -0.714216,0.58476 -0.422194,0 -0.836499,0 -1.25481,0 -0.343302,0 -0.580577,-0.262616 -0.532703,-0.58476 0.00340672,-0.0227712 0.00788925,-0.0453034 0.0118339,-0.0692102 -0.145951,0 -0.284073,0 -0.426139,0 -0.00394462,0.0239068 -0.00872598,0.046439 -0.0118339,0.0692102 -0.0442276,0.322084 -0.366969,0.58476 -0.710271,0.58476 -0.422254,0 -0.836559,0 -1.25086,0 -0.347246,0 -0.585657,-0.262796 -0.536708,-0.58476 0.0733939,-0.48238 0.151569,-0.96458 0.224963,-1.4463 0.0489492,-0.321427 0.370914,-0.583565 0.714216,-0.583565 0.0157785,-0.10262 0.0355016,-0.2053 0.0512801,-0.30792 -0.347246,0 -0.590857,-0.263632 -0.540593,-0.583565 0.0760236,-0.483336 0.16161,-0.963624 0.232852,-1.4475 0.0470964,-0.320411 0.366969,-0.583565 0.710211,-0.583565 0.0157785,-0.10262 0.0316167,-0.20524 0.0473952,-0.30786 -0.343302,0 -0.577708,-0.262198 -0.528759,-0.583565 0.0733341,-0.481722 0.149119,-0.9644 0.224903,-1.44636 0.0505031,-0.321128 0.366969,-0.58476 0.710271,-0.58476 0.414305,0 0.824725,0 1.24297,0 0.343302,0 0.581593,0.263991 0.532703,0.58476 -0.0734537,0.48238 -0.15145,0.963982 -0.224903,1.44636 -0.0488296,0.32077 -0.370914,0.583565 -0.714216,0.583565 -0.0118339,0.10262 -0.0276124,0.20524 -0.0433908,0.30786 0.339297,0 0.581473,0.262796 0.532703,0.583565 -0.0735732,0.483515 -0.152884,0.964161 -0.228908,1.4475 -0.0502641,0.319933 -0.363025,0.583565 -0.706327,0.583565z"></path>
  </g>
 </g>
</svg>
